# Blender v2.81 (sub 16) OBJ File: 'lamp-post.blend'
# www.blender.org
o lamp_Cube
v 0.140000 0.100000 -0.140000
v 0.140000 0.000000 -0.140000
v 0.140000 0.100000 0.140000
v 0.140000 0.000000 0.140000
v -0.140000 0.100000 -0.140000
v -0.140000 0.000000 -0.140000
v -0.140000 0.100000 0.140000
v -0.140000 0.000000 0.140000
v 0.462801 8.000000 -0.462543
v 0.462801 8.000000 0.462801
v -0.462543 8.000000 -0.462543
v -0.462543 8.000000 0.462801
v 0.714000 9.500000 -0.714000
v 0.714000 9.500000 0.714000
v -0.714000 9.500000 -0.714000
v -0.714000 9.500000 0.714000
v -0.140000 7.800000 0.140000
v 0.140000 7.800000 0.140000
v 0.140000 7.800000 -0.140000
v -0.140000 7.800000 -0.140000
v 0.928200 9.500000 -0.928200
v 0.928200 9.500000 0.928200
v -0.928200 9.500000 -0.928200
v -0.928200 9.500000 0.928200
v 0.928200 9.700000 -0.928200
v 0.928200 9.700000 0.928200
v -0.928200 9.700000 -0.928200
v -0.928200 9.700000 0.928200
v 0.589481 8.000000 -0.589879
v 0.589481 8.000000 0.589481
v -0.589879 8.000000 -0.589879
v -0.589879 8.000000 0.589481
v -0.589879 7.800000 0.589481
v 0.589481 7.800000 0.589481
v 0.589481 7.800000 -0.589879
v -0.589879 7.800000 -0.589879
v 0.112000 0.000000 -0.140000
v 0.112000 0.100000 0.140000
v 0.112000 0.000000 0.140000
v 0.112000 0.100000 -0.140000
v 0.370267 8.000000 0.462801
v 0.370267 8.000000 -0.462543
v 0.571200 9.500000 0.714000
v 0.571200 9.500000 -0.714000
v 0.742560 9.500000 0.928200
v 0.742560 9.500000 -0.928200
v 0.742560 9.700000 0.928200
v 0.742560 9.700000 -0.928200
v 0.112000 7.800000 0.140000
v 0.112000 7.800000 -0.140000
v 0.471545 8.000000 0.589481
v 0.471545 8.000000 -0.589879
v 0.471545 7.800000 0.589481
v 0.471545 7.800000 -0.589879
v -0.140000 0.000000 0.112000
v 0.140000 0.100000 0.112000
v -0.140000 0.100000 0.112000
v 0.140000 0.000000 0.112000
v 0.462801 8.000000 0.370267
v -0.462543 8.000000 0.370267
v 0.714000 9.500000 0.571200
v -0.714000 9.500000 0.571200
v 0.928200 9.500000 0.742560
v -0.928200 9.500000 0.742560
v 0.928200 9.700000 0.742560
v -0.928200 9.700000 0.742560
v 0.140000 7.800000 0.112000
v -0.140000 7.800000 0.112000
v 0.589481 8.000000 0.471545
v -0.589879 8.000000 0.471545
v 0.589481 7.800000 0.471545
v -0.589879 7.800000 0.471545
v 0.742560 9.700000 0.742560
v 0.112000 0.000000 0.112000
v -0.140000 0.100000 -0.114800
v 0.140000 0.000000 -0.114800
v -0.462543 8.000000 -0.379262
v -0.714000 9.500000 -0.585480
v -0.928200 9.500000 -0.761124
v -0.928200 9.700000 -0.761124
v -0.140000 7.800000 -0.114800
v -0.589879 8.000000 -0.483737
v -0.589879 7.800000 -0.483737
v -0.140000 0.000000 -0.114800
v 0.140000 0.100000 -0.114800
v 0.462801 8.000000 -0.379262
v 0.714000 9.500000 -0.585480
v 0.928200 9.500000 -0.761124
v 0.928200 9.700000 -0.761124
v 0.140000 7.800000 -0.114800
v 0.589481 8.000000 -0.483737
v 0.589481 7.800000 -0.483737
v 0.742560 9.700000 -0.761124
v 0.112000 0.000000 -0.114800
v -0.114800 0.000000 -0.140000
v -0.114800 0.100000 0.140000
v -0.379262 8.000000 0.462801
v -0.585480 9.500000 0.714000
v -0.761124 9.500000 0.928200
v -0.761124 9.700000 0.928200
v -0.114800 7.800000 0.140000
v -0.483737 8.000000 0.589481
v -0.483737 7.800000 0.589481
v -0.114800 0.000000 0.140000
v -0.114800 0.100000 -0.140000
v -0.379262 8.000000 -0.462543
v -0.585480 9.500000 -0.714000
v -0.761124 9.500000 -0.928200
v -0.761124 9.700000 -0.928200
v -0.114800 7.800000 -0.140000
v -0.483737 8.000000 -0.589879
v -0.483737 7.800000 -0.589879
v -0.114800 0.000000 0.112000
v -0.761124 9.700000 0.742560
v -0.761124 9.700000 -0.761124
v -0.114800 0.000000 -0.114800
v -0.416481 8.000000 0.416328
v 0.416328 8.000000 0.333047
v 0.416328 8.000000 0.416328
v -0.416481 8.000000 -0.416481
v 0.333047 8.000000 -0.416481
v 0.416328 8.000000 -0.416481
v -0.642790 9.500000 0.642410
v 0.642410 9.500000 0.642410
v -0.642790 9.500000 -0.527122
v -0.642790 9.500000 -0.642790
v 0.642410 9.500000 -0.642790
v -0.341529 8.000000 -0.416481
v 0.416328 8.000000 -0.341529
v -0.416481 8.000000 0.333047
v -0.642790 9.500000 0.513890
v 0.141086 9.700000 0.141086
v 0.141086 9.700000 -0.159650
v -0.159650 9.700000 0.141086
v -0.159650 9.700000 -0.159650
v -0.341529 8.000000 0.416328
v -0.341528 8.000000 0.333047
v 0.333047 8.000000 -0.341529
v 0.333047 8.000000 0.333047
v 0.333047 8.000000 0.416328
v -0.416481 8.000000 -0.341529
v -0.341529 8.000000 -0.341529
v -0.527122 9.500000 0.642410
v 0.513889 9.500000 -0.527122
v 0.642410 9.500000 -0.527122
v -0.527122 9.500000 0.513890
v -0.527122 9.500000 -0.527122
v -0.527122 9.500000 -0.642790
v 0.513890 9.500000 -0.642790
v 0.513890 9.500000 0.642410
v 0.642410 9.500000 0.513890
v 0.513890 9.500000 0.513890
v 0.141086 9.900001 0.141086
v 0.141086 9.900001 -0.159650
v -0.159650 9.900001 0.141086
v -0.159650 9.900001 -0.159650
v 0.322607 0.100000 -0.321393
v 0.322607 0.000000 -0.321393
v 0.322607 0.100000 0.322607
v 0.322607 0.000000 0.322607
v -0.321393 0.100000 -0.321393
v -0.321393 0.000000 -0.321393
v -0.321393 0.100000 0.322607
v -0.321393 0.000000 0.322607
v 0.258207 0.000000 -0.321393
v 0.258207 0.100000 0.322607
v 0.258207 0.000000 0.322607
v 0.258207 0.100000 -0.321393
v -0.321393 0.000000 0.258207
v 0.322607 0.100000 0.258207
v -0.321393 0.100000 0.258207
v 0.322607 0.000000 0.258207
v -0.321393 0.100000 -0.263433
v 0.322607 0.000000 -0.263433
v -0.321393 0.000000 -0.263433
v 0.322607 0.100000 -0.263433
v -0.263433 0.000000 -0.321393
v -0.263433 0.100000 0.322607
v -0.263433 0.000000 0.322607
v -0.263433 0.100000 -0.321393
v 0.140000 3.950000 -0.140000
v -0.140000 3.950000 0.140000
v 0.140000 3.950000 0.140000
v -0.140000 3.950000 -0.140000
v 0.112000 3.950000 -0.140000
v 0.112000 3.950000 0.140000
v -0.140000 3.950000 0.112000
v 0.140000 3.950000 0.112000
v -0.140000 3.950000 -0.114800
v 0.140000 3.950000 -0.114800
v -0.114800 3.950000 0.140000
v -0.114800 3.950000 -0.140000
vt 0.625000 0.750000
vt 0.625000 0.775000
vt 0.625000 0.775000
vt 0.125000 0.750000
vt 0.125000 0.725000
vt 0.125000 0.725000
vt 0.625000 0.500000
vt 0.625000 0.522500
vt 0.625000 0.500000
vt 0.375000 0.725000
vt 0.350000 0.750000
vt 0.350000 0.725000
vt 0.625000 0.750000
vt 0.625000 0.725000
vt 0.625000 0.725000
vt 0.625000 0.775000
vt 0.625000 0.750000
vt 0.625000 0.475000
vt 0.625000 0.272500
vt 0.625000 0.475000
vt 0.625000 1.000000
vt 0.625000 0.977500
vt 0.625000 0.977500
vt 0.625000 0.250000
vt 0.625000 0.227500
vt 0.625000 0.227500
vt 0.625000 0.000000
vt 0.625000 0.025000
vt 0.625000 0.025000
vt 0.625000 0.500000
vt 0.625000 0.522500
vt 0.625000 0.522500
vt 0.625000 0.725000
vt 0.625000 0.522500
vt 0.625000 0.522500
vt 0.625000 0.025000
vt 0.625000 0.227500
vt 0.625000 0.025000
vt 0.625000 0.750000
vt 0.625000 0.750000
vt 0.625000 0.775000
vt 0.625000 0.775000
vt 0.625000 0.000000
vt 0.625000 0.025000
vt 0.625000 0.500000
vt 0.625000 0.522500
vt 0.625000 0.250000
vt 0.625000 0.272500
vt 0.625000 0.272500
vt 0.625000 0.250000
vt 0.625000 0.272500
vt 0.875000 0.725000
vt 0.852500 0.750000
vt 0.852500 0.725000
vt 0.625000 0.500000
vt 0.625000 0.522500
vt 0.625000 0.000000
vt 0.625000 0.025000
vt 0.625000 0.750000
vt 0.625000 0.775000
vt 0.625000 0.000000
vt 0.625000 0.025000
vt 0.625000 0.750000
vt 0.625000 0.775000
vt 0.625000 0.250000
vt 0.625000 0.272500
vt 0.625000 0.272500
vt 0.625000 0.250000
vt 0.625000 0.272500
vt 0.625000 0.272500
vt 0.625000 0.750000
vt 0.625000 0.775000
vt 0.625000 0.000000
vt 0.625000 0.025000
vt 0.625000 0.500000
vt 0.625000 0.522500
vt 0.625000 0.522500
vt 0.625000 0.500000
vt 0.625000 0.500000
vt 0.625000 0.475000
vt 0.625000 0.750000
vt 0.625000 0.725000
vt 0.625000 0.725000
vt 0.625000 0.250000
vt 0.625000 0.475000
vt 0.625000 0.272500
vt 0.625000 0.977500
vt 0.625000 0.500000
vt 0.625000 0.475000
vt 0.625000 0.977500
vt 0.625000 0.977500
vt 0.625000 0.977500
vt 0.625000 0.977500
vt 0.650000 0.725000
vt 0.625000 0.750000
vt 0.625000 0.725000
vt 0.625000 0.475000
vt 0.625000 0.500000
vt 0.625000 0.977500
vt 0.625000 0.750000
vt 0.375000 0.750000
vt 0.375000 0.725000
vt 0.375000 0.750000
vt 0.147500 0.750000
vt 0.147500 0.725000
vt 0.125000 0.500000
vt 0.125000 0.522500
vt 0.125000 0.500000
vt 0.350000 0.522500
vt 0.147500 0.522500
vt 0.650000 0.522500
vt 0.625000 0.522500
vt 0.625000 0.725000
vt 0.625000 0.227500
vt 0.625000 0.227500
vt 0.625000 0.227500
vt 0.625000 0.227500
vt 0.625000 0.227500
vt 0.625000 0.725000
vt 0.875000 0.522500
vt 0.852500 0.522500
vt 0.625000 0.227500
vt 0.625000 0.725000
vt 0.625000 0.000000
vt 0.625000 0.000000
vt 0.625000 0.025000
vt 0.625000 0.227500
vt 0.625000 1.000000
vt 0.625000 0.977500
vt 0.625000 0.977500
vt 0.375000 0.522500
vt 0.375000 0.500000
vt 0.350000 0.500000
vt 0.375000 0.500000
vt 0.350000 0.500000
vt 0.625000 0.000000
vt 0.625000 0.025000
vt 0.625000 0.000000
vt 0.625000 1.000000
vt 0.625000 1.000000
vt 0.875000 0.500000
vt 0.852500 0.500000
vt 0.625000 0.250000
vt 0.625000 0.250000
vt 0.650000 0.500000
vt 0.147500 0.500000
vt 0.625000 0.725000
vt 0.125000 0.522500
vt 0.650000 0.725000
vt 0.625000 1.000000
vt 0.625000 1.000000
vt 0.625000 0.522500
vt 0.625000 0.522500
vt 0.625000 0.725000
vt 0.625000 1.000000
vt 0.625000 1.000000
vt 0.625000 1.000000
vt 0.625000 1.000000
vt 0.625000 0.475000
vt 0.650000 0.750000
vt 0.625000 0.475000
vt 0.625000 0.475000
vt 0.625000 0.250000
vt 0.625000 0.775000
vt 0.625000 0.227500
vt 0.625000 0.025000
vt 0.625000 0.000000
vt 0.625000 0.025000
vt 0.625000 0.775000
vt 0.625000 0.750000
vt 0.625000 0.775000
vt 0.625000 0.272500
vt 0.625000 0.250000
vt 0.625000 0.500000
vt 0.625000 0.475000
vt 0.625000 0.725000
vt 0.625000 1.000000
vt 0.625000 0.977500
vt 0.625000 0.977500
vt 0.625000 0.000000
vt 0.625000 0.500000
vt 0.852500 0.522500
vt 0.650000 0.522500
vt 0.650000 0.522500
vt 0.852500 0.725000
vt 0.000000 0.000000
vt 0.000000 0.000000
vt 0.000000 0.000000
vt 0.000000 0.000000
vt 0.000000 0.000000
vt 0.000000 0.000000
vt 0.000000 0.000000
vt 0.000000 0.000000
vt 0.000000 0.000000
vt 0.000000 0.000000
vt 0.000000 0.000000
vt 0.000000 0.000000
vt 0.000000 0.000000
vt 0.000000 0.000000
vt 0.000000 0.000000
vt 0.000000 0.000000
vt 0.000000 0.000000
vt 0.852500 0.522500
vt 0.650000 0.725000
vt 0.852500 0.725000
vt 0.375000 1.000000
vt 0.375000 0.977500
vt 0.625000 0.227500
vt 0.375000 0.250000
vt 0.375000 0.227500
vt 0.625000 0.475000
vt 0.375000 0.475000
vt 0.625000 0.272500
vt 0.375000 0.272500
vt 0.375000 0.775000
vt 0.375000 0.522500
vt 0.375000 0.025000
vt 0.375000 0.000000
vt 0.625000 0.250000
vt 0.350000 0.750000
vt 0.147500 0.750000
vt 0.147500 0.500000
vt 0.625000 0.775000
vt 0.625000 0.272500
vt 0.625000 0.250000
vt 0.125000 0.750000
vt 0.625000 0.475000
vt 0.875000 0.750000
vt 0.625000 0.000000
vt 0.625000 1.000000
vt 0.000000 0.000000
vt 0.000000 0.000000
vt 0.000000 0.000000
vn 0.0000 -1.0000 0.0000
vn 0.0000 1.0000 0.0000
vn 1.0000 0.0000 0.0000
vn 0.0000 0.0000 -1.0000
vn -1.0000 0.0000 0.0000
vn 0.0000 0.0000 1.0000
vn 0.9888 0.1492 0.0000
vn 0.0000 0.1490 -0.9888
vn 0.0000 0.1492 0.9888
vn -0.9888 0.1490 0.0000
vn -0.6337 0.0001 0.7736
vn -0.9862 -0.1653 0.0000
vn 0.0000 -0.1653 -0.9862
vn 0.7735 0.0001 -0.6339
vn -0.7778 -0.0010 -0.6285
vn 0.9863 -0.1652 0.0000
vn 0.6318 0.0007 0.7751
vn 0.6251 -0.0001 -0.7805
vn 0.0000 -0.1652 0.9863
vn -0.7807 -0.0001 0.6249
vn 0.7763 0.0010 0.6303
vn -0.6270 -0.0007 -0.7790
vn -0.6339 0.0001 0.7735
vn 0.7736 0.0001 -0.6337
vn -0.7790 -0.0007 -0.6270
vn 0.6303 0.0010 0.7763
vn 0.6249 -0.0001 -0.7807
vn -0.7805 -0.0001 0.6251
vn 0.7751 0.0007 0.6318
vn -0.6285 -0.0010 -0.7778
s off
f 18/1/1 53/2/1 49/3/1
f 8/4/1 169/5/1 55/6/1
f 1/7/2 176/8/2 157/9/2
f 58/10/1 39/11/1 74/12/1
f 3/13/2 170/14/2 56/15/2
f 3/13/2 166/16/2 159/17/2
f 42/18/2 128/19/2 121/20/2
f 12/21/2 102/22/2 97/23/2
f 11/24/2 82/25/2 77/26/2
f 17/27/1 72/28/1 68/29/1
f 181/30/3 90/31/3 190/32/3
f 61/33/1 145/34/1 87/35/1
f 62/36/1 125/37/1 131/38/1
f 61/33/2 124/39/2 14/40/2
f 14/40/1 45/41/1 43/42/1
f 16/43/1 64/44/1 62/36/1
f 13/45/1 88/46/1 87/35/1
f 15/47/1 108/48/1 107/49/1
f 23/50/4 109/51/4 108/48/4
f 66/52/2 100/53/2 114/54/2
f 21/55/3 89/56/3 88/46/3
f 24/57/5 66/58/5 64/44/5
f 22/59/6 47/60/6 45/41/6
f 182/61/5 68/29/5 187/62/5
f 183/63/6 49/3/6 186/64/6
f 184/65/4 110/66/4 192/67/4
f 36/68/4 111/69/4 112/70/4
f 34/71/6 51/72/6 53/2/6
f 33/73/5 70/74/5 72/28/5
f 35/75/3 91/76/3 92/77/3
f 19/78/1 92/77/1 90/31/1
f 9/79/2 52/80/2 42/18/2
f 10/81/2 69/82/2 59/83/2
f 20/84/1 112/70/1 110/66/1
f 19/78/1 54/85/1 35/75/1
f 106/86/2 52/80/2 111/69/2
f 53/2/6 102/22/6 103/87/6
f 54/85/4 29/88/4 35/75/4
f 185/89/4 19/78/4 181/30/4
f 186/64/6 101/90/6 191/91/6
f 45/41/6 100/92/6 99/93/6
f 73/94/2 26/95/2 65/96/2
f 46/97/4 25/98/4 21/55/4
f 13/45/1 46/97/1 21/55/1
f 98/99/1 45/41/1 99/93/1
f 10/81/2 51/72/2 30/100/2
f 4/101/1 172/102/1 160/103/1
f 74/12/1 104/104/1 113/105/1
f 6/106/1 175/107/1 162/108/1
f 101/90/1 53/2/1 103/87/1
f 94/109/1 113/105/1 116/110/1
f 93/111/2 65/96/2 89/56/2
f 86/112/2 69/82/2 91/76/2
f 18/1/1 71/113/1 34/71/1
f 71/113/3 30/100/3 34/71/3
f 72/28/5 82/25/5 83/114/5
f 187/62/5 81/115/5 189/116/5
f 64/44/5 80/117/5 79/118/5
f 63/119/3 26/95/3 22/59/3
f 80/120/2 114/54/2 115/121/2
f 14/40/1 63/119/1 22/59/1
f 78/122/1 64/44/1 79/118/1
f 188/123/3 18/1/3 183/63/3
f 81/115/1 72/28/1 83/114/1
f 12/124/2 70/74/2 32/125/2
f 60/126/2 141/127/2 77/26/2
f 7/128/2 178/129/2 96/130/2
f 76/131/1 74/12/1 94/109/1
f 2/132/1 165/133/1 158/134/1
f 2/132/1 94/109/1 37/135/1
f 7/136/2 171/137/2 163/138/2
f 98/99/2 123/139/2 16/140/2
f 20/84/1 83/114/1 36/68/1
f 15/47/1 79/118/1 23/50/1
f 27/141/2 115/121/2 109/142/2
f 79/118/5 27/143/5 23/50/5
f 189/116/5 20/84/5 184/65/5
f 83/114/5 31/144/5 36/68/5
f 9/79/2 91/76/2 29/88/2
f 48/145/2 89/56/2 25/98/2
f 37/135/1 116/110/1 95/146/1
f 90/31/1 71/113/1 67/147/1
f 92/77/3 69/82/3 71/113/3
f 88/46/3 65/96/3 63/119/3
f 87/35/1 63/119/1 61/33/1
f 190/32/3 67/147/3 188/123/3
f 77/26/2 70/74/2 60/126/2
f 76/131/1 172/102/1 58/10/1
f 95/146/1 84/148/1 6/106/1
f 109/142/2 93/111/2 48/145/2
f 93/111/2 132/149/2 73/94/2
f 116/110/1 55/6/1 84/148/1
f 17/150/1 103/87/1 33/151/1
f 113/105/1 8/4/1 55/6/1
f 85/152/2 170/14/2 176/8/2
f 59/83/2 129/153/2 118/154/2
f 16/140/1 99/93/1 24/155/1
f 99/93/6 28/156/6 24/155/6
f 191/91/6 17/150/6 182/157/6
f 103/87/6 32/158/6 33/151/6
f 11/24/2 111/69/2 31/144/2
f 110/66/1 54/85/1 50/159/1
f 112/70/4 52/80/4 54/85/4
f 192/67/4 50/159/4 185/89/4
f 114/54/2 47/160/2 73/94/2
f 108/48/4 48/161/4 46/97/4
f 107/49/1 46/97/1 44/162/1
f 126/163/2 107/49/2 15/47/2
f 97/23/2 51/72/2 41/164/2
f 75/165/2 171/137/2 57/166/2
f 131/38/7 117/167/7 130/168/7
f 150/169/8 119/170/8 140/171/8
f 148/172/9 120/173/9 128/19/9
f 145/34/10 122/174/10 129/153/10
f 122/174/9 149/175/9 121/20/9
f 119/170/10 151/176/10 118/154/10
f 120/173/7 125/37/7 141/127/7
f 117/177/8 143/178/8 136/179/8
f 78/122/2 126/163/2 15/47/2
f 123/180/2 62/36/2 16/43/2
f 124/39/2 43/42/2 14/40/2
f 127/181/2 87/35/2 13/45/2
f 44/162/2 127/181/2 13/45/2
f 41/164/2 136/179/2 97/23/2
f 44/162/1 148/172/1 107/49/1
f 43/42/1 143/178/1 150/169/1
f 125/37/11 77/26/11 141/127/11
f 78/122/12 11/24/12 77/26/12
f 107/49/13 11/24/13 15/47/13
f 148/172/14 106/86/14 107/49/14
f 149/175/15 42/18/15 121/20/15
f 44/162/13 9/79/13 42/18/13
f 87/35/16 9/79/16 13/45/16
f 145/34/17 86/112/17 87/35/17
f 151/176/18 59/83/18 118/154/18
f 61/33/16 10/81/16 59/83/16
f 43/42/19 10/81/19 14/40/19
f 150/169/20 41/164/20 43/42/20
f 143/178/21 97/23/21 136/179/21
f 98/99/19 12/21/19 97/23/19
f 62/36/12 12/124/12 16/43/12
f 131/38/22 60/126/22 62/36/22
f 135/182/4 154/183/4 133/184/4
f 73/94/2 134/185/2 114/54/2
f 114/54/2 135/182/2 115/121/2
f 115/121/2 133/184/2 93/111/2
f 130/168/2 136/179/2 137/186/2
f 130/168/2 142/187/2 141/127/2
f 120/173/2 142/187/2 128/19/2
f 128/19/2 138/188/2 121/20/2
f 121/20/2 129/153/2 122/174/2
f 129/153/2 139/189/2 118/154/2
f 118/154/2 140/171/2 119/170/2
f 138/188/2 137/186/2 139/189/2
f 136/179/2 139/189/2 137/186/2
f 123/190/1 146/191/1 143/192/1
f 125/193/1 148/194/1 147/195/1
f 147/195/1 131/196/1 125/193/1
f 143/178/1 152/197/1 150/169/1
f 124/198/1 152/197/1 151/199/1
f 144/200/1 151/199/1 152/197/1
f 145/201/2 149/202/2 144/200/2
f 148/172/2 144/200/2 149/175/2
f 152/197/1 147/195/1 144/200/1
f 156/203/2 153/204/2 154/183/2
f 133/184/3 153/204/3 132/149/3
f 134/185/5 156/203/5 135/182/5
f 132/149/6 155/205/6 134/185/6
f 178/129/6 164/206/6 179/207/6
f 173/208/5 162/209/5 175/210/5
f 170/14/3 160/103/3 172/102/3
f 168/211/4 158/134/4 165/212/4
f 180/213/4 165/212/4 177/214/4
f 159/17/6 167/215/6 160/103/6
f 176/8/3 172/102/3 174/216/3
f 163/138/5 169/217/5 164/218/5
f 157/9/3 174/216/3 158/134/3
f 171/137/5 175/210/5 169/217/5
f 161/219/4 177/214/4 162/209/4
f 166/16/6 179/207/6 167/215/6
f 95/146/1 165/133/1 37/135/1
f 104/104/1 167/220/1 179/221/1
f 4/101/1 167/220/1 39/11/1
f 6/106/1 177/222/1 95/146/1
f 96/130/2 166/16/2 38/223/2
f 105/224/2 168/211/2 180/213/2
f 5/225/2 173/208/2 75/165/2
f 8/4/1 179/221/1 164/226/1
f 1/7/2 168/211/2 40/227/2
f 5/225/2 180/213/2 161/219/2
f 2/132/1 174/216/1 76/131/1
f 84/148/1 169/5/1 175/107/1
f 105/224/4 185/89/4 40/227/4
f 96/130/6 182/157/6 7/128/6
f 85/152/3 188/123/3 56/15/3
f 75/165/5 184/65/5 5/225/5
f 56/15/3 183/63/3 3/13/3
f 57/166/5 189/116/5 75/165/5
f 38/223/6 191/91/6 96/130/6
f 40/227/4 181/30/4 1/7/4
f 5/225/4 192/67/4 105/224/4
f 3/13/6 186/64/6 38/223/6
f 7/136/5 187/62/5 57/166/5
f 1/7/3 190/32/3 85/152/3
f 18/1/1 34/71/1 53/2/1
f 8/4/1 164/226/1 169/5/1
f 1/7/2 85/152/2 176/8/2
f 58/10/1 4/101/1 39/11/1
f 3/13/2 159/17/2 170/14/2
f 3/13/2 38/223/2 166/16/2
f 42/18/2 106/86/2 128/19/2
f 12/21/2 32/158/2 102/22/2
f 11/24/2 31/144/2 82/25/2
f 17/27/1 33/73/1 72/28/1
f 181/30/3 19/78/3 90/31/3
f 61/33/1 151/176/1 145/34/1
f 62/36/1 78/122/1 125/37/1
f 61/33/2 151/176/2 124/39/2
f 14/40/1 22/59/1 45/41/1
f 16/43/1 24/57/1 64/44/1
f 13/45/1 21/55/1 88/46/1
f 15/47/1 23/50/1 108/48/1
f 23/50/4 27/143/4 109/51/4
f 66/52/2 28/228/2 100/53/2
f 21/55/3 25/98/3 89/56/3
f 24/57/5 28/229/5 66/58/5
f 22/59/6 26/95/6 47/60/6
f 182/61/5 17/27/5 68/29/5
f 183/63/6 18/1/6 49/3/6
f 184/65/4 20/84/4 110/66/4
f 36/68/4 31/144/4 111/69/4
f 34/71/6 30/100/6 51/72/6
f 33/73/5 32/125/5 70/74/5
f 35/75/3 29/88/3 91/76/3
f 19/78/1 35/75/1 92/77/1
f 9/79/2 29/88/2 52/80/2
f 10/81/2 30/100/2 69/82/2
f 20/84/1 36/68/1 112/70/1
f 19/78/1 50/159/1 54/85/1
f 106/86/2 42/18/2 52/80/2
f 53/2/6 51/72/6 102/22/6
f 54/85/4 52/80/4 29/88/4
f 185/89/4 50/159/4 19/78/4
f 186/64/6 49/3/6 101/90/6
f 45/41/6 47/60/6 100/92/6
f 73/94/2 47/160/2 26/95/2
f 46/97/4 48/161/4 25/98/4
f 13/45/1 44/162/1 46/97/1
f 98/99/1 43/42/1 45/41/1
f 10/81/2 41/164/2 51/72/2
f 4/101/1 58/10/1 172/102/1
f 74/12/1 39/11/1 104/104/1
f 6/106/1 84/148/1 175/107/1
f 101/90/1 49/3/1 53/2/1
f 94/109/1 74/12/1 113/105/1
f 93/111/2 73/94/2 65/96/2
f 86/112/2 59/83/2 69/82/2
f 18/1/1 67/147/1 71/113/1
f 71/113/3 69/82/3 30/100/3
f 72/28/5 70/74/5 82/25/5
f 187/62/5 68/29/5 81/115/5
f 64/44/5 66/58/5 80/117/5
f 63/119/3 65/96/3 26/95/3
f 80/120/2 66/52/2 114/54/2
f 14/40/1 61/33/1 63/119/1
f 78/122/1 62/36/1 64/44/1
f 188/123/3 67/147/3 18/1/3
f 81/115/1 68/29/1 72/28/1
f 12/124/2 60/126/2 70/74/2
f 60/126/2 130/168/2 141/127/2
f 7/128/2 163/230/2 178/129/2
f 76/131/1 58/10/1 74/12/1
f 2/132/1 37/135/1 165/133/1
f 2/132/1 76/131/1 94/109/1
f 7/136/2 57/166/2 171/137/2
f 98/99/2 143/178/2 123/139/2
f 20/84/1 81/115/1 83/114/1
f 15/47/1 78/122/1 79/118/1
f 27/141/2 80/120/2 115/121/2
f 79/118/5 80/117/5 27/143/5
f 189/116/5 81/115/5 20/84/5
f 83/114/5 82/25/5 31/144/5
f 9/79/2 86/112/2 91/76/2
f 48/145/2 93/111/2 89/56/2
f 37/135/1 94/109/1 116/110/1
f 90/31/1 92/77/1 71/113/1
f 92/77/3 91/76/3 69/82/3
f 88/46/3 89/56/3 65/96/3
f 87/35/1 88/46/1 63/119/1
f 190/32/3 90/31/3 67/147/3
f 77/26/2 82/25/2 70/74/2
f 76/131/1 174/216/1 172/102/1
f 95/146/1 116/110/1 84/148/1
f 109/142/2 115/121/2 93/111/2
f 93/111/2 133/184/2 132/149/2
f 116/110/1 113/105/1 55/6/1
f 17/150/1 101/90/1 103/87/1
f 113/105/1 104/104/1 8/4/1
f 85/152/2 56/15/2 170/14/2
f 59/83/2 86/112/2 129/153/2
f 16/140/1 98/99/1 99/93/1
f 99/93/6 100/92/6 28/156/6
f 191/91/6 101/90/6 17/150/6
f 103/87/6 102/22/6 32/158/6
f 11/24/2 106/86/2 111/69/2
f 110/66/1 112/70/1 54/85/1
f 112/70/4 111/69/4 52/80/4
f 192/67/4 110/66/4 50/159/4
f 114/54/2 100/53/2 47/160/2
f 108/48/4 109/51/4 48/161/4
f 107/49/1 108/48/1 46/97/1
f 126/163/2 148/172/2 107/49/2
f 97/23/2 102/22/2 51/72/2
f 75/165/2 173/208/2 171/137/2
f 131/38/7 123/180/7 117/167/7
f 150/169/8 124/39/8 119/170/8
f 148/172/9 126/163/9 120/173/9
f 145/34/10 127/181/10 122/174/10
f 122/174/9 127/181/9 149/175/9
f 119/170/10 124/39/10 151/176/10
f 120/173/7 126/163/7 125/37/7
f 117/177/8 123/139/8 143/178/8
f 78/122/2 125/37/2 126/163/2
f 123/180/2 131/38/2 62/36/2
f 124/39/2 150/169/2 43/42/2
f 127/181/2 145/34/2 87/35/2
f 44/162/2 149/175/2 127/181/2
f 41/164/2 140/171/2 136/179/2
f 44/162/1 149/175/1 148/172/1
f 43/42/1 98/99/1 143/178/1
f 125/37/23 78/122/23 77/26/23
f 78/122/12 15/47/12 11/24/12
f 107/49/13 106/86/13 11/24/13
f 148/172/24 128/19/24 106/86/24
f 149/175/25 44/162/25 42/18/25
f 44/162/13 13/45/13 9/79/13
f 87/35/16 86/112/16 9/79/16
f 145/34/26 129/153/26 86/112/26
f 151/176/27 61/33/27 59/83/27
f 61/33/16 14/40/16 10/81/16
f 43/42/19 41/164/19 10/81/19
f 150/169/28 140/171/28 41/164/28
f 143/178/29 98/99/29 97/23/29
f 98/99/19 16/140/19 12/21/19
f 62/36/12 60/126/12 12/124/12
f 131/38/30 130/168/30 60/126/30
f 135/182/4 156/203/4 154/183/4
f 73/94/2 132/149/2 134/185/2
f 114/54/2 134/185/2 135/182/2
f 115/121/2 135/182/2 133/184/2
f 130/168/2 117/177/2 136/179/2
f 130/168/2 137/186/2 142/187/2
f 120/173/2 141/127/2 142/187/2
f 128/19/2 142/187/2 138/188/2
f 121/20/2 138/188/2 129/153/2
f 129/153/2 138/188/2 139/189/2
f 118/154/2 139/189/2 140/171/2
f 138/188/2 142/187/2 137/186/2
f 136/179/2 140/171/2 139/189/2
f 123/190/1 131/196/1 146/191/1
f 125/193/1 126/231/1 148/194/1
f 147/195/1 146/191/1 131/196/1
f 143/178/1 146/191/1 152/197/1
f 124/198/1 150/232/1 152/197/1
f 144/200/1 145/34/1 151/199/1
f 145/201/2 127/233/2 149/202/2
f 148/172/2 147/195/2 144/200/2
f 152/197/1 146/191/1 147/195/1
f 156/203/2 155/205/2 153/204/2
f 133/184/3 154/183/3 153/204/3
f 134/185/5 155/205/5 156/203/5
f 132/149/6 153/204/6 155/205/6
f 178/129/6 163/230/6 164/206/6
f 173/208/5 161/219/5 162/209/5
f 170/14/3 159/17/3 160/103/3
f 168/211/4 157/9/4 158/134/4
f 180/213/4 168/211/4 165/212/4
f 159/17/6 166/16/6 167/215/6
f 176/8/3 170/14/3 172/102/3
f 163/138/5 171/137/5 169/217/5
f 157/9/3 176/8/3 174/216/3
f 171/137/5 173/208/5 175/210/5
f 161/219/4 180/213/4 177/214/4
f 166/16/6 178/129/6 179/207/6
f 95/146/1 177/222/1 165/133/1
f 104/104/1 39/11/1 167/220/1
f 4/101/1 160/103/1 167/220/1
f 6/106/1 162/108/1 177/222/1
f 96/130/2 178/129/2 166/16/2
f 105/224/2 40/227/2 168/211/2
f 5/225/2 161/219/2 173/208/2
f 8/4/1 104/104/1 179/221/1
f 1/7/2 157/9/2 168/211/2
f 5/225/2 105/224/2 180/213/2
f 2/132/1 158/134/1 174/216/1
f 84/148/1 55/6/1 169/5/1
f 105/224/4 192/67/4 185/89/4
f 96/130/6 191/91/6 182/157/6
f 85/152/3 190/32/3 188/123/3
f 75/165/5 189/116/5 184/65/5
f 56/15/3 188/123/3 183/63/3
f 57/166/5 187/62/5 189/116/5
f 38/223/6 186/64/6 191/91/6
f 40/227/4 185/89/4 181/30/4
f 5/225/4 184/65/4 192/67/4
f 3/13/6 183/63/6 186/64/6
f 7/136/5 182/61/5 187/62/5
f 1/7/3 181/30/3 190/32/3
